<?xml version="1.0" encoding="UTF-8" standalone="no"?>
<!-- Created with Inkscape (http://www.inkscape.org/) -->

<svg
   height="64"
   width="64"
   version="1.1"
   id="svg8"
   sodipodi:docname="bitcoin.svg"
   inkscape:version="1.2.2 (b0a8486541, 2022-12-01)"
   xmlns:inkscape="http://www.inkscape.org/namespaces/inkscape"
   xmlns:sodipodi="http://sodipodi.sourceforge.net/DTD/sodipodi-0.dtd"
   xmlns="http://www.w3.org/2000/svg"
   xmlns:svg="http://www.w3.org/2000/svg">
  <defs
     id="defs12" />
  <sodipodi:namedview
     id="namedview10"
     pagecolor="#ffffff"
     bordercolor="#666666"
     borderopacity="1.0"
     inkscape:showpageshadow="2"
     inkscape:pageopacity="0.0"
     inkscape:pagecheckerboard="0"
     inkscape:deskcolor="#d1d1d1"
     showgrid="false"
     inkscape:zoom="10.429825"
     inkscape:cx="34.037004"
     inkscape:cy="53.788055"
     inkscape:window-width="3072"
     inkscape:window-height="1659"
     inkscape:window-x="0"
     inkscape:window-y="0"
     inkscape:window-maximized="1"
     inkscape:current-layer="svg8" />
  <path
     fill="#f7931a"
     d="M 58.99752,38.732935 C 55.280068,53.643625 40.178026,62.718071 25.265596,58.999749 10.359255,55.282296 1.2848089,40.179384 5.004001,25.269564 8.719714,10.357134 23.821756,1.2818186 38.729837,4.9992712 53.641397,8.7167237 62.714973,23.821375 58.99752,38.732935 Z"
     id="path2"
     style="stroke-width:0.869783" />
  <path
     fill="#ffffff"
     d="m 44.272094,28.034604 c 0.554052,-3.703536 -2.265785,-5.694469 -6.121533,-7.022628 l 1.250748,-5.016908 -3.053808,-0.76106 -1.217696,4.884701 c -0.80281,-0.20005 -1.627364,-0.388793 -2.4467,-0.575796 l 1.226394,-4.916884 -3.052068,-0.76106 -1.251618,5.015169 C 28.941299,18.728796 28.288962,18.579193 27.65576,18.421762 l 0.0035,-0.01566 -4.211489,-1.051567 -0.812378,3.261686 c 0,0 2.265785,0.51926 2.217947,0.551442 1.236831,0.308773 1.460366,1.127239 1.422965,1.776097 L 24.8516,28.659104 c 0.08524,0.02174 0.195701,0.05306 0.317471,0.101765 -0.101764,-0.02522 -0.210487,-0.05306 -0.322689,-0.08002 l -1.997022,8.006352 c -0.151342,0.375747 -0.534917,0.939366 -1.399481,0.725399 0.03044,0.04436 -2.219686,-0.554051 -2.219686,-0.554051 l -1.516032,3.495658 3.974039,0.990682 c 0.739315,0.185264 1.463844,0.379226 2.177066,0.56188 l -1.263794,5.074314 3.050329,0.76106 1.251617,-5.020387 c 0.833253,0.226143 1.642151,0.434891 2.433653,0.631462 l -1.247269,4.996904 3.053809,0.76106 1.263794,-5.064747 c 5.207391,0.985465 9.123154,0.587974 10.771393,-4.121901 1.328159,-3.792254 -0.0661,-5.979758 -2.80592,-7.406202 1.995282,-0.460116 3.498267,-1.772618 3.899237,-4.483732 z m -6.977399,9.784189 c -0.943715,3.792254 -7.328792,1.742175 -9.398875,1.228134 l 1.676941,-6.722553 c 2.070084,0.516651 8.708268,1.539516 7.721934,5.494419 z m 0.944584,-9.838985 c -0.861085,3.449559 -6.175459,1.696946 -7.899369,1.267274 l 1.520381,-6.097179 c 1.72391,0.429673 7.275735,1.231613 6.378988,4.829905 z"
     id="path4"
     style="stroke-width:0.869783" />
</svg>
